<svg xmlns="http://www.w3.org/2000/svg" viewBox="0 0 210 210">
  <rect width="200" height="200" rx="20" fill="#141413"/>
<path d="M180 0H20C8.9543 0 0 8.9543 0 20V180C0 191.046 8.9543 200 20 200H180C191.046 200 200 191.046 200 180V20C200 8.9543 191.046 0 180 0Z" fill="#F0EFEA"/>
<path d="M152.009 67.1091C146.827 58.7564 139.275 52.4151 129.337 48.0512C119.467 43.6873 107.433 41.5054 93.25 41.5054H40.1504V44.1987L53.5659 47.7103V152.205L40.1504 155.802V158.495H94.4773C106.921 158.495 118.036 156.211 127.854 151.625C137.724 147.04 145.531 140.221 151.259 131.17C156.987 122.067 159.85 110.765 159.85 97.2983C159.85 85.4681 157.225 75.3937 151.992 67.1091H152.009ZM127.121 129.874C123.951 137.681 119.348 143.341 113.297 146.886C107.245 150.432 99.847 152.205 91.1192 152.205H80.8913V47.8125H88.4941C102.898 47.8125 113.723 52.0401 120.985 60.4951C128.246 68.899 131.86 81.769 131.86 99.1223C131.86 111.839 130.275 122.084 127.121 129.891V129.874Z" fill="#141413"/>
</svg>
